<svg width="67" height="36" viewBox="0 0 67 36" fill="none" xmlns="http://www.w3.org/2000/svg">
<path d="M48.1918 0.5H18.7852C9.12017 0.5 1.28516 8.33502 1.28516 18C1.28516 27.665 9.12017 35.5 18.7852 35.5H48.1918C57.8567 35.5 65.6918 27.665 65.6918 18C65.6918 8.33502 57.8567 0.5 48.1918 0.5Z" fill="white"/>
<mask id="mask0_1_22292" style="mask-type:luminance" maskUnits="userSpaceOnUse" x="16" y="8" width="35" height="20">
<path d="M50.1918 8H16.7852V28H50.1918V8Z" fill="white"/>
</mask>
<g mask="url(#mask0_1_22292)">
<path d="M26.2809 15.2969C26.2809 15.7035 26.3249 16.0332 26.4019 16.2749C26.4899 16.5167 26.5999 16.7804 26.7539 17.0661C26.8089 17.1541 26.8299 17.242 26.8299 17.3189C26.8299 17.4288 26.7649 17.5387 26.6219 17.6486L25.9289 18.1101C25.8299 18.176 25.7319 18.209 25.6439 18.209C25.5339 18.209 25.4239 18.1541 25.3139 18.0552C25.1599 17.8903 25.0279 17.7145 24.9179 17.5387C24.8089 17.3519 24.6989 17.1431 24.5779 16.8903C23.7209 17.9013 22.6439 18.4068 21.3469 18.4068C20.4239 18.4068 19.6879 18.1431 19.1489 17.6156C18.6109 17.0881 18.3359 16.3848 18.3359 15.5057C18.3359 14.5716 18.6659 13.8134 19.3359 13.242C20.0059 12.6705 20.8959 12.3848 22.0279 12.3848C22.4019 12.3848 22.7869 12.4178 23.1929 12.4727C23.5999 12.5277 24.0169 12.6156 24.4569 12.7145V11.9123C24.4569 11.0771 24.2809 10.4947 23.9399 10.1541C23.5889 9.8134 22.9949 9.64857 22.1489 9.64857C21.7649 9.64857 21.3689 9.69252 20.9619 9.79142C20.5559 9.89032 20.1599 10.0112 19.7759 10.165C19.5999 10.242 19.4679 10.2859 19.3909 10.3079C19.3139 10.3299 19.2589 10.3409 19.2149 10.3409C19.0609 10.3409 18.9839 10.231 18.9839 10.0002V9.46175C18.9839 9.28593 19.0059 9.15406 19.0609 9.07714C19.1159 9.00021 19.2149 8.92329 19.3689 8.84637C19.7539 8.64857 20.2149 8.48373 20.7539 8.35186C21.2919 8.20901 21.8629 8.14307 22.4679 8.14307C23.7759 8.14307 24.7319 8.43977 25.3469 9.03318C25.9509 9.62659 26.2589 10.5277 26.2589 11.7365V15.2969H26.2809ZM21.8199 16.9672C22.1819 16.9672 22.5559 16.9013 22.9509 16.7694C23.3469 16.6376 23.6989 16.3958 23.9949 16.0661C24.1709 15.8574 24.3029 15.6266 24.3689 15.3629C24.4349 15.0991 24.4789 14.7804 24.4789 14.4068V13.9453C24.1599 13.8683 23.8199 13.8024 23.4679 13.7585C23.1159 13.7145 22.7759 13.6925 22.4349 13.6925C21.6989 13.6925 21.1599 13.8354 20.7979 14.1321C20.4349 14.4288 20.2589 14.8464 20.2589 15.3958C20.2589 15.9123 20.3909 16.2969 20.6659 16.5607C20.9289 16.8354 21.3139 16.9672 21.8199 16.9672ZM30.6439 18.1541C30.4459 18.1541 30.3139 18.1211 30.2259 18.0442C30.1379 17.9782 30.0609 17.8244 29.9949 17.6156L27.4129 9.12109C27.3469 8.90131 27.3139 8.75846 27.3139 8.68153C27.3139 8.50571 27.4019 8.40681 27.5779 8.40681H28.6549C28.8629 8.40681 29.0059 8.43978 29.0829 8.5167C29.1709 8.58263 29.2369 8.73648 29.3029 8.94527L31.1489 16.22L32.8629 8.94527C32.9179 8.72549 32.9839 8.58263 33.0719 8.5167C33.1599 8.45076 33.3139 8.40681 33.5119 8.40681H34.3909C34.5999 8.40681 34.7429 8.43978 34.8299 8.5167C34.9179 8.58263 34.9949 8.73648 35.0389 8.94527L36.7759 16.3079L38.6769 8.94527C38.7429 8.72549 38.8199 8.58263 38.8959 8.5167C38.9839 8.45076 39.1269 8.40681 39.3249 8.40681H40.3469C40.5229 8.40681 40.6219 8.49472 40.6219 8.68153C40.6219 8.73648 40.6109 8.79142 40.5999 8.85736C40.5889 8.92329 40.5669 9.0112 40.5229 9.13208L37.8739 17.6266C37.8089 17.8464 37.7319 17.9892 37.6439 18.0552C37.5559 18.1211 37.4129 18.165 37.2259 18.165H36.2809C36.0719 18.165 35.9289 18.1321 35.8409 18.0552C35.7539 17.9782 35.6769 17.8354 35.6329 17.6156L33.9289 10.5277L32.2369 17.6046C32.1819 17.8244 32.1159 17.9672 32.0279 18.0442C31.9399 18.1211 31.7869 18.1541 31.5889 18.1541H30.6439ZM44.7649 18.4508C44.1929 18.4508 43.6219 18.3848 43.0719 18.253C42.5229 18.1211 42.0939 17.9782 41.8089 17.8134C41.6329 17.7145 41.5119 17.6046 41.4679 17.5057C41.4239 17.4068 41.4019 17.2969 41.4019 17.198V16.6376C41.4019 16.4068 41.4899 16.2969 41.6549 16.2969C41.7209 16.2969 41.7869 16.3079 41.8519 16.3299C41.9179 16.3519 42.0169 16.3958 42.1269 16.4398C42.5009 16.6046 42.9069 16.7365 43.3359 16.8244C43.7759 16.9123 44.2039 16.9563 44.6439 16.9563C45.3359 16.9563 45.8739 16.8354 46.2479 16.5936C46.6219 16.3519 46.8189 16.0002 46.8189 15.5497C46.8189 15.242 46.7209 14.9892 46.5229 14.7804C46.3249 14.5716 45.9509 14.3848 45.4129 14.209L43.8199 13.7145C43.0169 13.4618 42.4239 13.0881 42.0609 12.5936C41.6989 12.1101 41.5119 11.5716 41.5119 11.0002C41.5119 10.5387 41.6109 10.1321 41.8089 9.78043C42.0059 9.42879 42.2699 9.12109 42.5999 8.87934C42.9289 8.62659 43.3029 8.43978 43.7429 8.30791C44.1819 8.17604 44.6439 8.12109 45.1269 8.12109C45.3689 8.12109 45.6219 8.13208 45.8629 8.16505C46.1159 8.19802 46.3469 8.24197 46.5779 8.28593C46.7979 8.34087 47.0059 8.39582 47.2039 8.46175C47.4019 8.52769 47.5559 8.59362 47.6659 8.65956C47.8199 8.74747 47.9289 8.83538 47.9949 8.93428C48.0609 9.02219 48.0939 9.14307 48.0939 9.29692V9.8134C48.0939 10.0442 48.0059 10.165 47.8409 10.165C47.7539 10.165 47.6109 10.1211 47.4239 10.0332C46.7979 9.74747 46.0939 9.60461 45.3139 9.60461C44.6879 9.60461 44.1929 9.70351 43.8519 9.9123C43.5119 10.1211 43.3359 10.4398 43.3359 10.8903C43.3359 11.198 43.4459 11.4618 43.6659 11.6705C43.8849 11.8793 44.2919 12.0881 44.8739 12.2749L46.4349 12.7694C47.2259 13.0222 47.7979 13.3738 48.1379 13.8244C48.4789 14.2749 48.6439 14.7914 48.6439 15.3629C48.6439 15.8354 48.5449 16.264 48.3579 16.6376C48.1599 17.0112 47.8959 17.3409 47.5559 17.6046C47.2149 17.8793 46.8089 18.0771 46.3359 18.22C45.8409 18.3738 45.3249 18.4508 44.7649 18.4508Z" fill="#252F3E"/>
<path fill-rule="evenodd" clip-rule="evenodd" d="M46.8398 23.7913C43.2248 26.4617 37.9718 27.8793 33.4558 27.8793C27.1258 27.8793 21.4228 25.5386 17.1148 21.6485C16.7748 21.3408 17.0818 20.9232 17.4888 21.165C22.1478 23.8683 27.8948 25.5056 33.8398 25.5056C37.8508 25.5056 42.2578 24.6705 46.3128 22.9562C46.9168 22.6815 47.4338 23.3518 46.8398 23.7913Z" fill="#FF9900"/>
<path fill-rule="evenodd" clip-rule="evenodd" d="M48.3488 22.0772C47.8878 21.4838 45.2938 21.7915 44.1188 21.9343C43.7668 21.9783 43.7118 21.6706 44.0308 21.4398C46.0968 19.9893 49.4918 20.4068 49.8878 20.8904C50.2828 21.3849 49.7778 24.7805 47.8438 26.4068C47.5468 26.6596 47.2608 26.5277 47.3928 26.1981C47.8328 25.1101 48.8108 22.6596 48.3488 22.0772Z" fill="#FF9900"/>
</g>
<path d="M48.1918 0.5H18.7852C9.12017 0.5 1.28516 8.33502 1.28516 18C1.28516 27.665 9.12017 35.5 18.7852 35.5H48.1918C57.8567 35.5 65.6918 27.665 65.6918 18C65.6918 8.33502 57.8567 0.5 48.1918 0.5Z" stroke="#E8E8E8"/>
</svg>
