<svg width="55" height="36" viewBox="0 0 55 36" fill="none" xmlns="http://www.w3.org/2000/svg">
<path d="M36.1914 0.5H18.1914C8.52642 0.5 0.691406 8.33502 0.691406 18C0.691406 27.665 8.52642 35.5 18.1914 35.5H36.1914C45.8564 35.5 53.6914 27.665 53.6914 18C53.6914 8.33502 45.8564 0.5 36.1914 0.5Z" fill="white"/>
<path d="M27.1934 28.9999V24.734C31.7084 24.734 35.2134 20.2561 33.4804 15.5037C32.8434 13.7575 31.4344 12.348 29.6754 11.7118C24.9234 9.99049 20.4454 13.483 20.4454 17.9984H16.1914C16.1914 10.8013 23.1524 5.18823 30.6984 7.5457C33.9914 8.581 36.6234 11.2004 37.6464 14.4934C40.0034 22.0398 34.3904 28.9999 27.1934 28.9999Z" fill="#0080FF"/>
<path fill-rule="evenodd" clip-rule="evenodd" d="M27.211 24.7583H22.957V20.5049H27.211V24.7583Z" fill="#0080FF"/>
<path fill-rule="evenodd" clip-rule="evenodd" d="M22.9552 28.0143H19.6992V24.7588H22.9552V28.0143Z" fill="#0080FF"/>
<path fill-rule="evenodd" clip-rule="evenodd" d="M19.6968 24.759H16.9648V22.0273H19.6968V24.759Z" fill="#0080FF"/>
<path d="M36.1914 0.5H18.1914C8.52642 0.5 0.691406 8.33502 0.691406 18C0.691406 27.665 8.52642 35.5 18.1914 35.5H36.1914C45.8564 35.5 53.6914 27.665 53.6914 18C53.6914 8.33502 45.8564 0.5 36.1914 0.5Z" stroke="#E8E8E8"/>
</svg>
