<svg width="20" height="20" viewBox="0 0 20 20" fill="none" xmlns="http://www.w3.org/2000/svg">
<path d="M10 0C4.47834 0 0 4.4775 0 10C0 14.4184 2.865 18.1666 6.83916 19.4891C7.33834 19.5816 7.5 19.2716 7.5 19.0084V17.1466C4.71834 17.7516 4.13916 15.9666 4.13916 15.9666C3.68416 14.8109 3.02834 14.5034 3.02834 14.5034C2.12084 13.8825 3.0975 13.8959 3.0975 13.8959C4.10166 13.9659 4.63 14.9266 4.63 14.9266C5.52166 16.455 6.96916 16.0134 7.54 15.7575C7.62916 15.1116 7.88834 14.67 8.175 14.4209C5.95416 14.1666 3.61916 13.3091 3.61916 9.47834C3.61916 8.38584 4.01 7.49416 4.64916 6.79416C4.54584 6.54166 4.20334 5.52416 4.74666 4.1475C4.74666 4.1475 5.58666 3.87916 7.4975 5.1725C8.295 4.95084 9.15 4.84 10 4.83584C10.85 4.84 11.7058 4.95084 12.505 5.1725C14.4141 3.87916 15.2525 4.1475 15.2525 4.1475C15.7966 5.525 15.4541 6.5425 15.3509 6.79416C15.9925 7.49416 16.38 8.38666 16.38 9.47834C16.38 13.3191 14.0409 14.165 11.8142 14.4125C12.1725 14.7225 12.5 15.3309 12.5 16.2641V19.0084C12.5 19.2741 12.66 19.5866 13.1675 19.4884C17.1384 18.1641 20 14.4166 20 10C20 4.4775 15.5225 0 10 0Z" fill="white"/>
</svg>
