<svg width="20" height="21" viewBox="0 0 20 21" fill="none" xmlns="http://www.w3.org/2000/svg">
<g clip-path="url(#clip0_1_22268)">
<g clip-path="url(#clip1_1_22268)">
<mask id="mask0_1_22268" style="mask-type:luminance" maskUnits="userSpaceOnUse" x="0" y="0" width="20" height="21">
<path d="M20 0.5H0V20.5H20V0.5Z" fill="white"/>
</mask>
<g mask="url(#mask0_1_22268)">
<path d="M10 0.5C4.47833 0.5 0 4.9775 0 10.5C0 14.9183 2.865 18.6667 6.83917 19.9892C7.33833 20.0817 7.5 19.7717 7.5 19.5083V17.6467C4.71833 18.2517 4.13917 16.4667 4.13917 16.4667C3.68417 15.3108 3.02833 15.0033 3.02833 15.0033C2.12083 14.3825 3.0975 14.3958 3.0975 14.3958C4.10167 14.4658 4.63 15.4267 4.63 15.4267C5.52167 16.955 6.96917 16.5133 7.54 16.2575C7.62917 15.6117 7.88833 15.17 8.175 14.9208C5.95417 14.6667 3.61917 13.8092 3.61917 9.97833C3.61917 8.88583 4.01 7.99417 4.64917 7.29417C4.54583 7.04167 4.20333 6.02417 4.74667 4.6475C4.74667 4.6475 5.58667 4.37917 7.4975 5.6725C8.295 5.45083 9.15 5.34 10 5.33583C10.85 5.34 11.7058 5.45083 12.505 5.6725C14.4142 4.37917 15.2525 4.6475 15.2525 4.6475C15.7967 6.025 15.4542 7.0425 15.3508 7.29417C15.9925 7.99417 16.38 8.88667 16.38 9.97833C16.38 13.8192 14.0408 14.665 11.8142 14.9125C12.1725 15.2225 12.5 15.8308 12.5 16.7642V19.5083C12.5 19.7742 12.66 20.0867 13.1675 19.9883C17.1383 18.6642 20 14.9167 20 10.5C20 4.9775 15.5225 0.5 10 0.5Z" fill="#262626"/>
</g>
</g>
</g>
<defs>
<clipPath id="clip0_1_22268">
<rect width="20" height="20" fill="white" transform="translate(0 0.5)"/>
</clipPath>
<clipPath id="clip1_1_22268">
<rect width="20" height="20" fill="white" transform="translate(0 0.5)"/>
</clipPath>
</defs>
</svg>
