<svg width="162" height="36" viewBox="0 0 162 36" fill="none" xmlns="http://www.w3.org/2000/svg">
<path d="M143.786 0.5H18.5C8.83502 0.5 1 8.33502 1 18C1 27.665 8.83502 35.5 18.5 35.5H143.786C153.451 35.5 161.286 27.665 161.286 18C161.286 8.33502 153.451 0.5 143.786 0.5Z" fill="white"/>
<path d="M32.106 13.2935H32.8203L34.856 11.2578L34.956 10.3935C33.7898 9.36415 32.3805 8.64911 30.8611 8.31591C29.3418 7.98271 27.7625 8.04235 26.2726 8.48918C24.7827 8.93601 23.4313 9.75528 22.3461 10.8696C21.2608 11.984 20.4776 13.3566 20.0703 14.8578C20.2971 14.7648 20.5483 14.7497 20.7846 14.8149L24.856 14.1435C24.856 14.1435 25.0632 13.8006 25.1703 13.822C26.0427 12.8639 27.2483 12.2755 28.5403 12.1773C29.8323 12.079 31.1131 12.4783 32.1203 13.2935H32.106Z" fill="#EA4335"/>
<path d="M37.7563 14.8575C37.2884 13.1344 36.3277 11.5854 34.992 10.4004L32.1349 13.2575C32.7303 13.7441 33.2074 14.3595 33.5304 15.0574C33.8533 15.7552 34.0136 16.5173 33.9991 17.2861V17.7933C34.333 17.7933 34.6638 17.859 34.9723 17.9868C35.2808 18.1146 35.561 18.3019 35.7971 18.538C36.0333 18.7742 36.2206 19.0545 36.3484 19.363C36.4761 19.6715 36.542 20.0022 36.542 20.3361C36.542 20.6701 36.4761 21.0007 36.3484 21.3092C36.2206 21.6177 36.0333 21.8981 35.7971 22.1342C35.561 22.3703 35.2808 22.5576 34.9723 22.6854C34.6638 22.8132 34.333 22.879 33.9991 22.879H28.9134L28.4062 23.3933V26.4433L28.9134 26.9504H33.9991C35.4192 26.9615 36.8053 26.5151 37.9522 25.6774C39.099 24.8397 39.9457 23.655 40.3671 22.2988C40.7885 20.9425 40.7621 19.4866 40.2919 18.1465C39.8217 16.8064 38.9327 15.6532 37.7563 14.8575Z" fill="#4285F4"/>
<path d="M23.8209 26.9211H28.9066V22.8497H23.8209C23.4586 22.8496 23.1005 22.7716 22.7709 22.6211L22.0566 22.8425L20.0066 24.8782L19.8281 25.5925C20.9777 26.4606 22.3804 26.9273 23.8209 26.9211Z" fill="#34A853"/>
<path d="M23.8248 13.7139C22.4468 13.7221 21.1058 14.1606 19.9891 14.9679C18.8723 15.7753 18.0356 16.9113 17.5959 18.2172C17.1561 19.5232 17.1352 20.9339 17.5361 22.2523C17.9369 23.5707 18.7396 24.731 19.8319 25.5711L22.7819 22.6211C22.407 22.4517 22.0788 22.1939 21.8255 21.8698C21.5721 21.5457 21.4012 21.165 21.3273 20.7603C21.2535 20.3556 21.2789 19.939 21.4014 19.5463C21.524 19.1536 21.7399 18.7965 22.0308 18.5057C22.3217 18.2148 22.6788 17.9988 23.0715 17.8763C23.4642 17.7538 23.8807 17.7283 24.2854 17.8022C24.6901 17.8761 25.0708 18.047 25.3949 18.3003C25.719 18.5537 25.9768 18.8819 26.1462 19.2568L29.0962 16.3068C28.477 15.4973 27.679 14.8421 26.7645 14.3922C25.85 13.9424 24.8439 13.7103 23.8248 13.7139Z" fill="#FBBC05"/>
<path d="M54.2012 24.0784C53.3256 24.0896 52.4567 23.9239 51.6466 23.5913C50.8366 23.2587 50.102 22.766 49.4869 22.1427C48.8524 21.5459 48.3489 20.8237 48.0083 20.022C47.6677 19.2203 47.4974 18.3566 47.5083 17.4856C47.4979 16.6146 47.6683 15.751 48.0089 14.9494C48.3495 14.1477 48.8527 13.4255 49.4869 12.8284C50.099 12.1987 50.8322 11.6994 51.6424 11.3606C52.4526 11.0218 53.323 10.8505 54.2012 10.857C55.0379 10.8459 55.8685 11.0011 56.6447 11.3138C57.4209 11.6265 58.1272 12.0904 58.7226 12.6784L57.4512 13.9713C56.5805 13.1298 55.4119 12.6675 54.2012 12.6856C53.5731 12.6779 52.9503 12.8009 52.3724 13.0468C51.7944 13.2928 51.2739 13.6562 50.844 14.1141C50.3972 14.5574 50.0447 15.0865 49.8078 15.6696C49.5709 16.2527 49.4544 16.8777 49.4655 17.507C49.4602 18.1291 49.5795 18.746 49.8162 19.3213C50.053 19.8966 50.4024 20.4188 50.844 20.857C51.7286 21.7385 52.9222 22.24 54.1709 22.2546C55.4196 22.2693 56.6247 21.796 57.5297 20.9356C58.09 20.322 58.4338 19.5417 58.5083 18.7141H54.2226V16.8856H60.2869C60.3465 17.2538 60.3704 17.627 60.3583 17.9999C60.396 18.7716 60.2768 19.5429 60.008 20.2673C59.7391 20.9916 59.3261 21.6539 58.794 22.2141C58.2024 22.8301 57.4876 23.3145 56.6963 23.6357C55.9049 23.9569 55.0547 24.1078 54.2012 24.0784ZM68.3012 22.8642C67.4873 23.6443 66.4035 24.0798 65.2762 24.0798C64.1488 24.0798 63.065 23.6443 62.2512 22.8642C61.8461 22.4714 61.5271 21.9987 61.3143 21.4761C61.1016 20.9535 60.9998 20.3924 61.0155 19.8284C61.0003 19.2645 61.1023 18.7035 61.315 18.181C61.5277 17.6585 61.8464 17.1857 62.2512 16.7927C63.0659 16.0142 64.1493 15.5798 65.2762 15.5798C66.403 15.5798 67.4865 16.0142 68.3012 16.7927C68.7059 17.1857 69.0247 17.6585 69.2374 18.181C69.4501 18.7035 69.5521 19.2645 69.5369 19.8284C69.5516 20.393 69.4487 20.9544 69.2347 21.477C69.0207 21.9996 68.7004 22.472 68.294 22.8642H68.3012ZM63.5869 21.6713C63.8034 21.9025 64.065 22.0868 64.3555 22.2127C64.6461 22.3387 64.9595 22.4037 65.2762 22.4037C65.5929 22.4037 65.9062 22.3387 66.1968 22.2127C66.4874 22.0868 66.749 21.9025 66.9655 21.6713C67.2015 21.4273 67.3863 21.1386 67.509 20.8221C67.6316 20.5056 67.6897 20.1677 67.6797 19.8284C67.6903 19.488 67.6325 19.1489 67.5098 18.8312C67.3871 18.5134 67.202 18.2235 66.9655 17.9784C66.7461 17.7496 66.4827 17.5676 66.1912 17.4432C65.8997 17.3188 65.586 17.2547 65.269 17.2547C64.9521 17.2547 64.6384 17.3188 64.3468 17.4432C64.0553 17.5676 63.7919 17.7496 63.5726 17.9784C63.336 18.2235 63.1509 18.5134 63.0282 18.8312C62.9056 19.1489 62.8478 19.488 62.8583 19.8284C62.8493 20.1682 62.9085 20.5064 63.0324 20.8229C63.1563 21.1395 63.3424 21.4279 63.5797 21.6713H63.5869ZM77.6012 22.8642C76.7873 23.6443 75.7035 24.0798 74.5762 24.0798C73.4488 24.0798 72.365 23.6443 71.5512 22.8642C71.1461 22.4714 70.8271 21.9987 70.6143 21.4761C70.4016 20.9535 70.2998 20.3924 70.3155 19.8284C70.3003 19.2645 70.4023 18.7035 70.615 18.181C70.8277 17.6585 71.1464 17.1857 71.5512 16.7927C72.365 16.0126 73.4488 15.577 74.5762 15.577C75.7035 15.577 76.7873 16.0126 77.6012 16.7927C78.0059 17.1857 78.3247 17.6585 78.5374 18.181C78.7501 18.7035 78.8521 19.2645 78.8369 19.8284C78.8525 20.3924 78.7507 20.9535 78.538 21.4761C78.3253 21.9987 78.0062 22.4714 77.6012 22.8642ZM72.8869 21.6713C73.1034 21.9025 73.365 22.0868 73.6555 22.2127C73.9461 22.3387 74.2595 22.4037 74.5762 22.4037C74.8929 22.4037 75.2062 22.3387 75.4968 22.2127C75.7874 22.0868 76.049 21.9025 76.2654 21.6713C76.5015 21.4273 76.6863 21.1386 76.809 20.8221C76.9316 20.5056 76.9897 20.1677 76.9797 19.8284C76.9903 19.488 76.9325 19.1489 76.8098 18.8312C76.6871 18.5134 76.502 18.2235 76.2654 17.9784C76.0461 17.7496 75.7827 17.5676 75.4912 17.4432C75.1997 17.3188 74.886 17.2547 74.569 17.2547C74.2521 17.2547 73.9384 17.3188 73.6468 17.4432C73.3553 17.5676 73.0919 17.7496 72.8726 17.9784C72.636 18.2235 72.4509 18.5134 72.3282 18.8312C72.2056 19.1489 72.1478 19.488 72.1583 19.8284C72.1493 20.1682 72.2085 20.5064 72.3324 20.8229C72.4563 21.1395 72.6424 21.4279 72.8797 21.6713H72.8869ZM83.7154 27.8927C82.8593 27.92 82.0197 27.6527 81.3369 27.1356C80.7306 26.6798 80.2531 26.0743 79.9512 25.3784L81.5797 24.6999C81.757 25.1157 82.0342 25.4813 82.3869 25.7642C82.7643 26.0684 83.238 26.228 83.7226 26.2142C84.0299 26.2328 84.3376 26.1851 84.6248 26.0742C84.912 25.9632 85.1719 25.7917 85.3869 25.5713C85.8172 25.0522 86.0297 24.3866 85.9797 23.7142V23.0999H85.9154C85.6433 23.4232 85.2995 23.6786 84.9114 23.846C84.5234 24.0134 84.1017 24.0881 83.6797 24.0642C83.1434 24.0658 82.6126 23.9562 82.1209 23.7422C81.6291 23.5283 81.187 23.2147 80.8226 22.8213C80.4271 22.431 80.115 21.9645 79.9051 21.4501C79.6951 20.9357 79.5917 20.384 79.6012 19.8284C79.5913 19.2696 79.6944 18.7146 79.9043 18.1967C80.1142 17.6787 80.4265 17.2085 80.8226 16.8141C81.1861 16.4191 81.6279 16.1039 82.1197 15.8887C82.6116 15.6735 83.1428 15.563 83.6797 15.5641C84.1341 15.5634 84.583 15.6634 84.994 15.857C85.3496 16.0123 85.6666 16.244 85.9226 16.5356H85.9869V15.857H87.7583V23.4642C87.8049 24.0659 87.7283 24.6709 87.533 25.242C87.3377 25.8131 87.0279 26.3383 86.6226 26.7856C86.2365 27.1549 85.7804 27.4432 85.2811 27.6333C84.7817 27.8235 84.2494 27.9117 83.7154 27.8927ZM83.844 22.407C84.149 22.4137 84.4518 22.3532 84.7308 22.2297C85.0097 22.1063 85.2581 21.923 85.4583 21.6927C85.899 21.1877 86.1314 20.534 86.1083 19.8642C86.1348 19.1829 85.9026 18.5169 85.4583 17.9999C85.2585 17.7692 85.0101 17.5856 84.7311 17.4622C84.452 17.3387 84.1491 17.2784 83.844 17.2856C83.5307 17.2791 83.2196 17.3395 82.9314 17.4627C82.6432 17.5858 82.3845 17.769 82.1726 17.9999C81.7001 18.4984 81.4434 19.1632 81.4583 19.8499C81.451 20.1867 81.5104 20.5216 81.633 20.8354C81.7556 21.1492 81.9389 21.4357 82.1726 21.6784C82.3835 21.9116 82.6416 22.0971 82.9298 22.2227C83.218 22.3484 83.5297 22.4112 83.844 22.407ZM90.9083 11.3356V23.8213H89.044V11.3356H90.9083ZM96.0226 24.0784C95.4643 24.0928 94.909 23.9917 94.3916 23.7815C93.8741 23.5714 93.4056 23.2566 93.0154 22.857C92.6195 22.4603 92.3084 21.9873 92.1008 21.4667C91.8933 20.9461 91.7938 20.3887 91.8083 19.8284C91.7872 19.2668 91.8794 18.7066 92.0794 18.1814C92.2794 17.6562 92.5832 17.1766 92.9726 16.7713C93.3395 16.3845 93.7832 16.0786 94.2752 15.8732C94.7672 15.6677 95.2967 15.5674 95.8297 15.5784C96.3199 15.5733 96.806 15.668 97.2583 15.857C97.6657 16.0215 98.037 16.2641 98.3512 16.5713C98.6209 16.8317 98.8605 17.1216 99.0654 17.4356C99.2312 17.7007 99.3723 17.9804 99.4869 18.2713L99.6797 18.757L93.9654 21.107C94.1383 21.5041 94.4273 21.8395 94.7946 22.069C95.1618 22.2985 95.5899 22.4114 96.0226 22.3927C96.4435 22.3939 96.8576 22.2859 97.2244 22.0793C97.5912 21.8728 97.8982 21.5747 98.1154 21.2141L99.544 22.1784C99.1794 22.7 98.7129 23.1423 98.1726 23.4784C97.53 23.8844 96.7825 24.093 96.0226 24.0784ZM93.6369 19.6999L97.4369 18.1213C97.3198 17.843 97.1104 17.6134 96.844 17.4713C96.5457 17.3028 96.208 17.2166 95.8654 17.2213C95.2841 17.2363 94.7323 17.4802 94.3297 17.8999C94.0888 18.1304 93.9018 18.4112 93.7821 18.7224C93.6623 19.0336 93.6127 19.3673 93.6369 19.6999Z" fill="#5F6368"/>
<path d="M109.448 24.0787C108.655 24.0923 107.868 23.9457 107.133 23.6475C106.398 23.3493 105.731 22.9056 105.172 22.3433C104.613 21.7809 104.174 21.1113 103.88 20.3748C103.586 19.6383 103.444 18.85 103.462 18.0572C103.444 17.2645 103.586 16.4762 103.88 15.7397C104.174 15.0031 104.613 14.3336 105.172 13.7712C105.731 13.2088 106.398 12.7652 107.133 12.467C107.868 12.1688 108.655 12.0221 109.448 12.0358C110.251 12.0107 111.048 12.1673 111.782 12.4938C112.515 12.8204 113.166 13.3084 113.684 13.9215L112.655 14.9215C112.275 14.4429 111.787 14.0608 111.231 13.8064C110.675 13.5519 110.066 13.4323 109.455 13.4572C108.867 13.444 108.282 13.5498 107.736 13.7683C107.19 13.9868 106.694 14.3134 106.277 14.7287C105.843 15.1644 105.505 15.685 105.282 16.2578C105.06 16.8306 104.958 17.4433 104.984 18.0572C104.958 18.6712 105.06 19.2838 105.282 19.8566C105.505 20.4295 105.843 20.9501 106.277 21.3858C106.694 21.801 107.19 22.1277 107.736 22.3462C108.282 22.5647 108.867 22.6705 109.455 22.6572C110.138 22.6649 110.814 22.5186 111.432 22.2292C112.05 21.9399 112.595 21.5148 113.027 20.9858L114.055 22.0144C113.517 22.6584 112.841 23.1734 112.077 23.5215C111.253 23.9017 110.355 24.0921 109.448 24.0787Z" fill="#5F6368"/>
<path d="M116.822 23.8218H115.344V12.2861H116.822V23.8218Z" fill="#5F6368"/>
<path d="M119.239 16.8781C120.013 16.1087 121.061 15.6768 122.153 15.6768C123.245 15.6768 124.292 16.1087 125.067 16.8781C125.446 17.2781 125.742 17.7491 125.938 18.264C126.134 18.7788 126.227 19.3274 126.21 19.8781C126.227 20.4288 126.134 20.9774 125.938 21.4922C125.742 22.0071 125.446 22.4781 125.067 22.8781C124.292 23.6475 123.245 24.0793 122.153 24.0793C121.061 24.0793 120.013 23.6475 119.239 22.8781C118.86 22.4781 118.564 22.0071 118.368 21.4922C118.171 20.9774 118.079 20.4288 118.096 19.8781C118.079 19.3274 118.171 18.7788 118.368 18.264C118.564 17.7491 118.86 17.2781 119.239 16.8781ZM120.339 21.9495C120.572 22.1957 120.852 22.3918 121.164 22.5259C121.475 22.6599 121.81 22.729 122.149 22.729C122.488 22.729 122.824 22.6599 123.135 22.5259C123.446 22.3918 123.727 22.1957 123.96 21.9495C124.218 21.6722 124.419 21.3463 124.55 20.9906C124.682 20.635 124.741 20.2568 124.724 19.8781C124.741 19.4994 124.682 19.1212 124.55 18.7656C124.419 18.4099 124.218 18.084 123.96 17.8067C123.727 17.5605 123.446 17.3644 123.135 17.2303C122.824 17.0963 122.488 17.0272 122.149 17.0272C121.81 17.0272 121.475 17.0963 121.164 17.2303C120.852 17.3644 120.572 17.5605 120.339 17.8067C120.08 18.084 119.879 18.4099 119.748 18.7656C119.617 19.1212 119.558 19.4994 119.574 19.8781C119.56 20.2561 119.621 20.6332 119.753 20.9876C119.885 21.342 120.087 21.6665 120.346 21.9424L120.339 21.9495Z" fill="#5F6368"/>
<path d="M134.397 23.8213H132.969V22.7284H132.926C132.672 23.1435 132.312 23.4836 131.883 23.7141C131.438 23.972 130.933 24.1075 130.419 24.107C130.001 24.1355 129.583 24.0694 129.195 23.9136C128.806 23.7577 128.458 23.5162 128.176 23.207C127.635 22.5226 127.363 21.6638 127.412 20.7927V15.9355H128.89V20.5213C128.89 21.9927 129.54 22.7284 130.84 22.7284C131.129 22.7374 131.416 22.6773 131.677 22.553C131.938 22.4288 132.165 22.244 132.34 22.0141C132.724 21.5284 132.928 20.9256 132.919 20.307V15.9355H134.397V23.8213Z" fill="#5F6368"/>
<path d="M139.423 24.0781C138.921 24.0798 138.425 23.9727 137.969 23.7643C137.512 23.5559 137.107 23.2512 136.78 22.871C136.039 22.053 135.643 20.981 135.673 19.8781C135.643 18.7752 136.039 17.7032 136.78 16.8852C137.107 16.505 137.512 16.2003 137.969 15.9919C138.425 15.7835 138.921 15.6764 139.423 15.6781C139.984 15.6692 140.54 15.8019 141.037 16.0638C141.474 16.2837 141.844 16.6167 142.108 17.0281H142.173L142.108 15.9352V12.2852H143.587V23.821H142.158V22.7281H142.094C141.829 23.1395 141.459 23.4725 141.023 23.6924C140.53 23.952 139.98 24.0846 139.423 24.0781ZM139.665 22.7281C140 22.733 140.331 22.6667 140.638 22.5337C140.944 22.4007 141.219 22.204 141.444 21.9567C141.946 21.3848 142.203 20.6379 142.158 19.8781C142.203 19.1183 141.946 18.3714 141.444 17.7995C141.218 17.5509 140.942 17.3522 140.634 17.2162C140.327 17.0803 139.994 17.0101 139.658 17.0101C139.322 17.0101 138.989 17.0803 138.682 17.2162C138.374 17.3522 138.099 17.5509 137.873 17.7995C137.623 18.0808 137.431 18.4086 137.309 18.7641C137.186 19.1195 137.135 19.4957 137.158 19.871C137.135 20.2462 137.186 20.6224 137.309 20.9779C137.431 21.3333 137.623 21.6611 137.873 21.9424C138.098 22.1941 138.374 22.3946 138.684 22.5302C138.993 22.6657 139.328 22.7332 139.665 22.7281Z" fill="#5F6368"/>
<path d="M143.786 0.5H18.5C8.83502 0.5 1 8.33502 1 18C1 27.665 8.83502 35.5 18.5 35.5H143.786C153.451 35.5 161.286 27.665 161.286 18C161.286 8.33502 153.451 0.5 143.786 0.5Z" stroke="#E8E8E8"/>
</svg>
