<svg width="32" height="32" viewBox="0 0 32 32" fill="none" xmlns="http://www.w3.org/2000/svg">
<g clip-path="url(#clip0_1_21413)">
<rect width="32" height="32" rx="8" fill="#303030"/>
<g clip-path="url(#clip1_1_21413)">
<g clip-path="url(#clip2_1_21413)">
<path d="M10.3036 18.7386C10.302 19.2951 10.0802 19.8283 9.68674 20.2218C9.29325 20.6153 8.76003 20.837 8.20356 20.8386C7.64692 20.8376 7.11333 20.6162 6.71945 20.2228C6.32556 19.8295 6.10341 19.2962 6.10156 18.7396C6.10156 17.5826 7.04656 16.6386 8.20256 16.6386H10.3036V18.7386ZM11.3616 18.7386C11.3616 17.5816 12.3066 16.6376 13.4636 16.6376C14.6196 16.6376 15.5636 17.5816 15.5636 18.7376V23.9996C15.5625 24.5563 15.3409 25.09 14.9474 25.4837C14.5538 25.8775 14.0203 26.0993 13.4636 26.1006C12.9069 26.0993 12.3734 25.8776 11.9797 25.4841C11.586 25.0906 11.3641 24.5572 11.3626 24.0006V18.7396L11.3616 18.7386ZM13.4636 10.3016C12.9069 10.3003 12.3734 10.0786 11.9797 9.68514C11.586 9.29162 11.3641 8.75825 11.3626 8.20161C11.3631 7.64481 11.5843 7.11091 11.9777 6.71691C12.3712 6.32291 12.9048 6.10093 13.4616 6.09961C14.6186 6.09961 15.5626 7.04461 15.5626 8.20061V10.3016H13.4636ZM13.4636 11.3596C14.6196 11.3596 15.5636 12.3046 15.5636 13.4616C15.562 14.0181 15.3402 14.5513 14.9467 14.9448C14.5533 15.3383 14.02 15.56 13.4636 15.5616H8.20356C7.64692 15.5606 7.11333 15.3392 6.71945 14.9458C6.32556 14.5525 6.10341 14.0192 6.10156 13.4626C6.10156 12.3056 7.04656 11.3616 8.20256 11.3616H13.4626L13.4636 11.3596ZM21.8996 13.4616C21.8996 12.3046 22.8446 11.3606 24.0006 11.3606C25.1576 11.3606 26.1016 12.3046 26.1016 13.4606C26.1005 14.0174 25.879 14.5512 25.4854 14.9451C25.0919 15.339 24.5584 15.561 24.0016 15.5626H21.8996V13.4616ZM20.8416 13.4616C20.8416 14.6176 19.8966 15.5616 18.7396 15.5616C17.5836 15.5616 16.6396 14.6176 16.6396 13.4616V8.20161C16.6396 7.04461 17.5836 6.09961 18.7396 6.09961C19.8966 6.09961 20.8406 7.04461 20.8406 8.20061V13.4606L20.8416 13.4616ZM18.7396 21.8976C19.8966 21.8976 20.8406 22.8426 20.8406 23.9976C20.8395 24.5544 20.618 25.0882 20.2244 25.4821C19.8309 25.876 19.2974 26.098 18.7406 26.0996C18.1837 26.0983 17.6499 25.8765 17.256 25.4828C16.8621 25.0891 16.6401 24.5555 16.6386 23.9986V21.8976H18.7396ZM18.7396 20.8396C17.5836 20.8396 16.6396 19.8946 16.6396 18.7386C16.6396 17.5816 17.5836 16.6376 18.7396 16.6376H24.0016C25.1576 16.6376 26.1026 17.5816 26.1026 18.7376C26.1015 19.2946 25.8798 19.8285 25.4861 20.2224C25.0923 20.6164 24.5585 20.8383 24.0016 20.8396H18.7416H18.7396Z" fill="white"/>
</g>
</g>
<rect x="0.5" y="0.5" width="31" height="31" rx="7.5" stroke="#606060"/>
</g>
<defs>
<clipPath id="clip0_1_21413">
<rect width="32" height="32" rx="8" fill="white"/>
</clipPath>
<clipPath id="clip1_1_21413">
<rect width="21" height="21" fill="white" transform="translate(5.5 5.5)"/>
</clipPath>
<clipPath id="clip2_1_21413">
<rect width="21" height="21" fill="white" transform="translate(5.5 5.5)"/>
</clipPath>
</defs>
</svg>
